<mxfile host="app.diagrams.net" modified="2023-09-25T07:04:01.847Z" agent="Mozilla/5.0 (Windows NT 10.0; Win64; x64) AppleWebKit/537.36 (KHTML, like Gecko) Chrome/117.0.0.0 Safari/537.36" version="21.8.2" etag="vQdto8QWzaXvq7OkR8Ft" type="github">
  <diagram name="第 1 页" id="rFfSa_CJ54YAkJSpp4-z">
    <mxGraphModel>
      <root>
        <mxCell id="0" />
        <mxCell id="1" parent="0" />
      </root>
    </mxGraphModel>
  </diagram>
</mxfile>
